<svg width="426" height="316" viewBox="0 0 426 316" fill="none" xmlns="http://www.w3.org/2000/svg">
<g clip-path="url(#clip0_19_102)">
<path d="M203.846 113.045H53.7869L25.8926 144.132V113.045H0V0H203.846V113.045Z" fill="#E5E5E5"/>
<path d="M170.421 33.207H33.4255V39.3303H170.421V33.207Z" fill="white"/>
<path d="M170.421 53.4609H33.4255V59.5842H170.421V53.4609Z" fill="white"/>
<path d="M170.421 73.7148H33.4255V79.8381H170.421V73.7148Z" fill="white"/>
<path d="M26.3053 163.16C29.1506 163.16 31.4571 160.852 31.4571 158.005C31.4571 155.159 29.1506 152.851 26.3053 152.851C23.46 152.851 21.1534 155.159 21.1534 158.005C21.1534 160.852 23.46 163.16 26.3053 163.16Z" fill="#E6E6E6"/>
<path d="M359.826 309.421H354.054L351.307 287.145H359.827L359.826 309.421Z" fill="#E2AFB6"/>
<path d="M361.298 315.02L342.685 315.019V314.784C342.686 312.862 343.449 311.018 344.807 309.659C346.166 308.299 348.009 307.536 349.93 307.536L361.298 307.536L361.298 315.02Z" fill="#2F2E41"/>
<path d="M303.565 308.964L298.092 307.128L302.566 285.134L310.643 287.843L303.565 308.964Z" fill="#E2AFB6"/>
<path d="M303.183 314.741L285.535 308.821L285.61 308.597C286.221 306.775 287.53 305.27 289.25 304.413C290.97 303.556 292.96 303.418 294.782 304.029L305.56 307.645L303.183 314.741Z" fill="#2F2E41"/>
<path d="M310.681 194.294L298.181 300.092L310.441 301.127C310.441 301.127 329.726 197.107 335.672 209.429C341.617 221.751 348.902 298.818 348.902 298.818H361.07C361.07 298.818 364.19 178.573 351.45 172.624L310.681 194.294Z" fill="#2F2E41"/>
<path d="M343.081 107.13C344.262 100.428 339.788 94.0383 333.089 92.8575C326.391 91.6768 320.004 96.1527 318.824 102.855C317.644 109.557 322.117 115.947 328.816 117.128C335.515 118.308 341.901 113.832 343.081 107.13Z" fill="#E2AFB6"/>
<path d="M323.634 121.849L339.347 123.124C339.347 123.124 351.875 123.336 356.971 126.735C362.067 130.134 352.087 151.167 352.087 151.167C352.087 151.167 349.492 159.505 351.45 163.276C357.801 175.511 356.86 184.932 356.86 184.932C356.86 184.932 343.806 187.92 321.298 193.869C321.298 193.869 307.284 199.392 307.708 196.418C308.133 193.444 312.38 159.452 312.38 159.452V124.186L323.634 121.849Z" fill="#3F3D56"/>
<path d="M351.121 103.657C350.492 100.149 349.084 95.1708 345.947 91.3968C346.046 91.3974 346.144 91.4017 346.243 91.3989C347.321 91.3674 348.548 91.0271 348.994 90.0443C349.137 89.6506 349.173 89.2256 349.098 88.8133C349.022 88.401 348.837 88.0165 348.563 87.6995C348.007 87.0734 347.342 86.5534 346.6 86.165C347.357 86.6246 348.427 87.0515 349.031 86.4041C349.186 86.2089 349.282 85.9735 349.308 85.7254C349.335 85.4774 349.29 85.227 349.179 85.0037C348.949 84.5605 348.628 84.172 348.235 83.8645C346.963 82.7389 345.571 81.7564 344.085 80.9346C342.934 80.2985 341.421 79.7877 340.388 80.6014C339.335 81.4303 339.504 83.0445 339.775 84.3569C339.185 84.0122 338.523 83.8122 337.841 83.7732C337.501 83.7635 337.167 83.8716 336.897 84.0792C336.627 84.2868 336.437 84.5814 336.358 84.9131C336.349 85.1748 336.407 85.4347 336.527 85.6674C336.647 85.9002 336.825 86.0981 337.044 86.2418C332.983 85.5737 327.795 86.3318 321.161 89.4025C321.161 89.4025 314.73 91.5475 314.403 100.018C314.37 101.373 314.52 102.726 314.85 104.041C315.212 105.576 316.501 113.11 314.955 116.154L322.7 118.915L322.789 114.273C316.769 105.579 319.743 102.389 322.087 97.1598C322.091 97.1503 322.097 97.142 322.106 97.1359C322.114 97.1299 322.124 97.1263 322.134 97.1255C322.144 97.1247 322.155 97.1268 322.164 97.1316C322.173 97.1363 322.18 97.1435 322.186 97.1523C322.619 97.896 324.279 100.445 329.991 100.445L327.784 98.2365C327.784 98.2365 337.496 102.212 341.028 102.212C341.028 102.212 343.676 103.979 341.028 106.629C338.379 109.279 332.582 113.18 335.672 118.038C338.762 122.897 338.496 124.621 338.496 124.621L345.56 120.646C345.56 120.646 349.874 112.105 350.639 109.59C351.268 107.679 351.433 105.645 351.121 103.657Z" fill="#2F2E41"/>
<path d="M266.246 199.412H406.765V277.338H388.916V298.768L369.687 277.338H266.246V199.412Z" fill="#E5E5E5"/>
<path d="M383.723 222.303H289.287V226.524H383.723V222.303Z" fill="white"/>
<path d="M383.723 236.265H289.287V240.486H383.723V236.265Z" fill="white"/>
<path d="M383.723 250.226H289.287V254.447H383.723V250.226Z" fill="white"/>
<path d="M358.51 149.481L350.268 151.485L350.206 168.175L340.936 200.186C340.194 200.773 339.627 201.553 339.296 202.439C338.965 203.326 338.884 204.287 339.06 205.216C339.236 206.146 339.664 207.01 340.296 207.714C340.928 208.418 341.741 208.935 342.647 209.21C343.552 209.484 344.515 209.505 345.432 209.27C346.348 209.036 347.183 208.554 347.845 207.878C348.508 207.203 348.972 206.358 349.189 205.437C349.405 204.516 349.366 203.553 349.074 202.652L360.156 169.513L358.51 149.481Z" fill="#E2AFB6"/>
<path d="M303.655 149.13L313.542 151.956L313.605 168.646L322.875 200.657C323.617 201.244 324.184 202.024 324.515 202.91C324.845 203.797 324.927 204.758 324.751 205.687C324.574 206.617 324.147 207.481 323.514 208.185C322.882 208.889 322.069 209.406 321.164 209.68C320.258 209.955 319.295 209.976 318.379 209.741C317.462 209.506 316.628 209.025 315.965 208.349C315.303 207.674 314.838 206.829 314.622 205.908C314.405 204.987 314.445 204.024 314.737 203.123L303.655 169.984V149.13Z" fill="#E2AFB6"/>
<path d="M346.141 125.036L348.184 124.369C349.331 123.995 350.578 124.082 351.662 124.611C351.662 124.611 357.608 125.036 358.457 129.285C359.306 133.534 361.372 170.672 361.372 170.672L348.779 166.663L346.141 125.036Z" fill="#3F3D56"/>
<path d="M317.476 125.036L313.861 124.854L312.716 124.281C312.716 124.281 306.01 125.036 305.16 129.285C304.311 133.534 301.84 171.817 301.84 171.817L314.433 168.381L317.476 125.036Z" fill="#3F3D56"/>
<path d="M109.778 275.567L115.747 270.357C115.492 266.615 115.025 262.89 114.351 259.2L111.057 260.595L114.113 257.927C113.233 253.373 112.363 250.413 112.363 250.413C112.363 250.413 100.319 261.114 93.5794 274.167L96.5359 283.898L92.0201 277.464C91.3486 279.017 90.7753 280.611 90.3038 282.236C85.6045 298.638 87.1488 313.469 93.7533 315.364C100.358 317.258 109.521 305.497 114.221 289.096C115.592 283.842 116.15 278.409 115.876 272.986L109.778 275.567Z" fill="#F1F1F1"/>
<path d="M125.584 288.32L133.386 286.948C135.101 283.612 136.626 280.182 137.955 276.675L134.415 276.165L138.409 275.462C140.009 271.109 140.793 268.124 140.793 268.124C140.793 268.124 124.955 271.056 112.441 278.745L109.945 288.604L109.404 280.76C108.026 281.743 106.712 282.811 105.469 283.958C92.9722 295.568 86.6316 309.064 91.3068 314.101C95.9819 319.138 109.902 313.809 122.399 302.199C126.287 298.411 129.572 294.049 132.139 289.265L125.584 288.32Z" fill="#F1F1F1"/>
<path d="M425.428 315.571H71.6679C71.5161 315.571 71.3705 315.51 71.2631 315.403C71.1558 315.296 71.0955 315.15 71.0955 314.998C71.0955 314.846 71.1558 314.7 71.2631 314.593C71.3705 314.486 71.5161 314.425 71.6679 314.425H425.428C425.579 314.425 425.725 314.486 425.832 314.593C425.94 314.7 426 314.846 426 314.998C426 315.15 425.94 315.296 425.832 315.403C425.725 315.51 425.579 315.571 425.428 315.571Z" fill="#CBCBCB"/>
</g>
<defs>
<clipPath id="clip0_19_102">
<rect width="426" height="316" fill="white"/>
</clipPath>
</defs>
</svg>
