<svg width="638" height="481" viewBox="0 0 638 481" fill="none" xmlns="http://www.w3.org/2000/svg">
<g clip-path="url(#clip0_13_79)">
<path d="M480.149 114.304H477.508V41.9033C477.508 30.7899 473.096 20.1316 465.243 12.2732C457.39 4.41482 446.74 1.4023e-05 435.634 1.50641e-10H282.351C276.852 -1.47546e-05 271.407 1.08383 266.326 3.18966C261.246 5.29548 256.629 8.38204 252.741 12.2731C248.853 16.1642 245.768 20.7836 243.664 25.8675C241.56 30.9514 240.476 36.4004 240.476 41.9032V439.097C240.476 444.6 241.559 450.048 243.664 455.132C245.768 460.216 248.853 464.836 252.741 468.727C256.629 472.618 261.246 475.704 266.326 477.81C271.406 479.916 276.852 481 282.351 481H435.634C446.739 481 457.39 476.585 465.243 468.727C473.096 460.869 477.508 450.21 477.508 439.097V165.839H480.149L480.149 114.304Z" fill="#3F3D56"/>
<path d="M437.323 10.9019H417.315C418.235 13.1593 418.586 15.6086 418.338 18.0338C418.089 20.4591 417.248 22.786 415.889 24.8095C414.53 26.833 412.695 28.4911 410.545 29.6376C408.395 30.784 405.996 31.3838 403.559 31.384H315.745C313.309 31.3838 310.91 30.7841 308.76 29.6376C306.61 28.4911 304.775 26.8331 303.416 24.8096C302.057 22.786 301.216 20.4592 300.967 18.0339C300.719 15.6086 301.07 13.1593 301.99 10.9019H283.302C275.008 10.9019 267.054 14.1988 261.19 20.0673C255.325 25.9359 252.031 33.8953 252.031 42.1947V438.805C252.031 442.915 252.84 446.984 254.411 450.781C255.983 454.577 258.286 458.027 261.19 460.933C264.094 463.839 267.541 466.144 271.335 467.716C275.129 469.289 279.195 470.098 283.302 470.098H437.323C441.43 470.098 445.496 469.289 449.29 467.716C453.084 466.144 456.532 463.839 459.435 460.933C462.339 458.027 464.643 454.577 466.214 450.781C467.786 446.984 468.595 442.915 468.595 438.805V42.1947C468.595 38.0853 467.786 34.0161 466.214 30.2194C464.643 26.4228 462.339 22.9731 459.435 20.0673C456.532 17.1615 453.084 14.8565 449.29 13.2839C445.496 11.7113 441.43 10.9019 437.323 10.9019Z" fill="white"/>
<path d="M392.217 182.881C407.537 182.881 419.957 181.697 419.957 180.237C419.957 178.777 407.537 177.593 392.217 177.593C376.898 177.593 364.478 178.777 364.478 180.237C364.478 181.697 376.898 182.881 392.217 182.881Z" fill="#E6E6E6"/>
<path d="M638 66.0044H382.633V149.895H392.306V171.836L414.231 149.895H638V66.0044Z" fill="#6F8772"/>
<path d="M527.178 94.413H411.056V97.9394H527.178V94.413Z" fill="white"/>
<path d="M613.447 106.612H411.056V110.139H613.447V106.612Z" fill="white"/>
<path d="M613.249 118.811H411.056V122.338H613.249V118.811Z" fill="white"/>
<path d="M572.761 319.029H368.918V385.994H376.639V403.508L394.141 385.994H572.761V319.029Z" fill="#6F8772"/>
<path d="M484.298 341.706H391.606V344.521H484.298V341.706Z" fill="white"/>
<path d="M553.161 351.444H391.606V354.259H553.161V351.444Z" fill="white"/>
<path d="M553.003 361.182H391.606V363.997H553.003V361.182Z" fill="white"/>
<path d="M376.568 412.324C388.797 412.324 398.711 411.379 398.711 410.214C398.711 409.048 388.797 408.104 376.568 408.104C364.339 408.104 354.426 409.048 354.426 410.214C354.426 411.379 364.339 412.324 376.568 412.324Z" fill="#E6E6E6"/>
<path d="M315.605 280.696C330.924 280.696 343.344 279.513 343.344 278.052C343.344 276.592 330.924 275.409 315.605 275.409C300.285 275.409 287.865 276.592 287.865 278.052C287.865 279.513 300.285 280.696 315.605 280.696Z" fill="#E6E6E6"/>
<path d="M145.588 197.544H325.171V256.539H318.368V271.968L302.949 256.539H145.588V197.544Z" fill="#6F8772"/>
<path d="M245.876 217.068H164.215V219.548H245.876V217.068Z" fill="white"/>
<path d="M306.543 225.647H164.215V228.127H306.543V225.647Z" fill="white"/>
<path d="M306.404 234.226H164.215V236.706H306.404V234.226Z" fill="white"/>
<path d="M58.1096 341.449C58.9707 342.932 60.3855 344.013 62.0428 344.453C63.7001 344.893 65.4641 344.656 66.9468 343.794C68.4295 342.932 69.5094 341.517 69.949 339.858C70.3885 338.2 70.1517 336.434 69.2906 334.951C69.1099 334.648 68.9063 334.359 68.6818 334.086L74.1202 295.297L74.283 294.135L75.3877 286.22L75.5505 285.079L74.9486 285.108L64.412 285.59L61.5865 285.717L61.2325 292.938L59.2285 333.534C58.1815 334.536 57.5018 335.861 57.2989 337.297C57.0959 338.733 57.3815 340.195 58.1096 341.449Z" fill="#A0616A"/>
<path d="M74.2517 294.488L60.8724 293.26C60.1784 293.194 59.5385 292.857 59.0923 292.321C58.646 291.785 58.4295 291.094 58.4901 290.399L60.9717 262.557C61.092 261.205 61.4821 259.89 62.119 258.692C62.7559 257.493 63.6266 256.434 64.6796 255.578C65.7326 254.722 66.9465 254.086 68.2495 253.708C69.5525 253.329 70.9181 253.216 72.2654 253.376C73.6128 253.535 74.9146 253.963 76.0937 254.634C77.2728 255.306 78.3054 256.207 79.1303 257.285C79.9552 258.363 80.5556 259.595 80.896 260.91C81.2365 262.224 81.3101 263.593 81.1124 264.936L77.1006 292.246C77.0084 292.871 76.6947 293.443 76.2166 293.857C75.7385 294.271 75.1278 294.499 74.4958 294.5C74.4151 294.5 74.3335 294.496 74.2517 294.488Z" fill="#CCCCCC"/>
<path d="M64.1121 271.994C62.7588 268.158 62.6961 263.984 63.9334 260.11C65.1708 256.235 67.6403 252.871 70.9655 250.532C76.0108 247.077 82.9148 245.837 90.35 254.695C105.22 272.41 109.115 291.896 109.115 291.896L78.6662 296.856C78.6662 296.856 68.3102 284.19 64.1121 271.994Z" fill="#CCCCCC"/>
<path d="M113.357 471.54H122.039L126.168 438.031L113.356 438.032L113.357 471.54Z" fill="#A0616A"/>
<path d="M138.781 479.606L111.497 479.607L111.497 469.058L130.362 469.057C131.468 469.057 132.562 469.275 133.584 469.698C134.605 470.122 135.533 470.742 136.315 471.524C137.097 472.307 137.717 473.235 138.14 474.258C138.563 475.28 138.781 476.375 138.781 477.482L138.781 479.606Z" fill="#2F2E41"/>
<path d="M41.9846 463.964L50.2271 466.69L64.658 436.172L52.4931 432.148L41.9846 463.964Z" fill="#A0616A"/>
<path d="M63.5938 479.607L37.6882 471.038L40.9965 461.022L58.9084 466.947C59.9581 467.294 60.9292 467.845 61.7663 468.568C62.6033 469.29 63.2899 470.171 63.7869 471.159C64.2838 472.148 64.5813 473.224 64.6625 474.328C64.7437 475.431 64.6068 476.54 64.2599 477.59L63.5938 479.607Z" fill="#2F2E41"/>
<path d="M91.5665 239.613C99.9946 235.003 103.092 224.428 98.4848 215.994C93.8776 207.56 83.3103 204.46 74.8821 209.071C66.4539 213.681 63.3564 224.256 67.9637 232.69C72.571 241.124 83.1383 244.224 91.5665 239.613Z" fill="#A0616A"/>
<path d="M98.4521 462.212L90.3899 408.964C90.3039 408.396 90.0233 407.875 89.5961 407.491C89.1689 407.107 88.6215 406.883 88.0477 406.858C87.4738 406.833 86.9091 407.008 86.45 407.353C85.9909 407.699 85.666 408.193 85.5308 408.752L73.2537 459.496C73.0603 460.274 72.5835 460.951 71.9169 461.394C71.2504 461.838 70.4422 462.016 69.6509 461.895L35.7857 456.448C35.3366 456.376 34.9083 456.208 34.5293 455.957C34.1503 455.705 33.8296 455.375 33.5886 454.989C33.3476 454.603 33.192 454.17 33.1322 453.719C33.0724 453.268 33.1097 452.809 33.2418 452.374L77.4 306.688C77.5255 306.274 77.5404 305.834 77.4432 305.412L75.9729 299.036C75.8114 298.345 75.8859 297.62 76.1845 296.976C76.4831 296.332 76.9886 295.806 77.6204 295.484C83.6334 292.413 98.8602 286.03 110.357 293.022C110.73 293.25 111.053 293.551 111.306 293.908C111.559 294.264 111.737 294.669 111.829 295.096L146.326 457.341C146.42 457.782 146.419 458.239 146.324 458.679C146.228 459.12 146.04 459.536 145.773 459.899C145.505 460.262 145.163 460.564 144.771 460.785C144.378 461.006 143.942 461.141 143.493 461.181L101.887 464.91C101.791 464.918 101.696 464.922 101.601 464.922C100.84 464.921 100.103 464.647 99.5259 464.149C98.9484 463.652 98.5675 462.965 98.4521 462.212Z" fill="#2F2E41"/>
<path d="M71.6919 212.046C73.003 211.257 74.1664 210.245 75.13 209.056C75.6052 208.455 75.918 207.742 76.0382 206.985C76.1584 206.229 76.0821 205.454 75.8166 204.735C74.9379 202.795 72.3267 202.181 70.3036 202.842C68.2805 203.504 66.7174 205.09 65.2387 206.622C63.9362 207.971 62.5966 209.379 61.9787 211.15C61.3609 212.922 61.6783 215.167 63.215 216.242C64.723 217.296 66.8912 216.865 68.3417 215.732C69.7922 214.599 70.69 212.919 71.5461 211.289L71.6919 212.046Z" fill="#2F2E41"/>
<path d="M65.8016 207.087C65.7052 202.183 60.1194 198.667 55.2956 199.536C50.4717 200.405 46.7637 204.521 44.9076 209.06C40.9861 218.651 43.93 229.595 47.7086 239.243C51.4871 248.892 56.1631 258.687 55.612 269.035C55.2395 274.629 53.3641 280.018 50.184 284.634C47.0038 289.249 42.637 292.919 37.5448 295.256C42.989 297.726 49.4964 295.175 54.0713 291.325C64.2312 282.776 68.1529 267.555 63.3906 255.155C61.0417 249.039 56.9022 243.807 53.6705 238.109C50.4387 232.411 48.0676 225.696 49.7361 219.36C51.4046 213.024 58.5053 207.893 64.576 210.347L65.8016 207.087Z" fill="#2F2E41"/>
<path d="M84.2672 232.065C82.7513 229.501 81.2206 226.135 83.9925 223.894C84.5951 223.429 85.2845 223.089 86.0203 222.895C86.756 222.7 87.5233 222.654 88.2769 222.761C91.4013 223.138 94.8036 223.293 97.8275 222.157C98.9617 221.766 100.006 221.152 100.898 220.349C101.79 219.547 102.512 218.574 103.021 217.487C104.582 213.785 102.627 209.287 99.3636 206.947C97.3669 205.568 95.0077 204.809 92.5817 204.766C90.1558 204.723 87.7712 205.398 85.727 206.706C81.4998 204.838 76.3707 205.668 72.5302 208.24C68.6898 210.812 66.0619 214.931 64.6343 219.33C63.3192 223.115 63.0928 227.194 63.9808 231.103C64.6954 233.822 66.0543 236.328 67.9422 238.41C69.8302 240.492 72.1917 242.088 74.8268 243.063C75.8533 243.468 76.9682 243.596 78.0596 243.434C79.151 243.272 80.1808 242.825 81.0456 242.14C81.0456 242.14 83.4427 240.046 84.1927 237.524C84.7688 235.586 85.0772 233.435 84.2672 232.065Z" fill="#2F2E41"/>
<path d="M135.861 247.595C135.775 247.977 135.718 248.365 135.692 248.757L105.274 266.317L97.8799 262.058L89.9978 272.384L102.355 281.197C103.353 281.909 104.555 282.278 105.78 282.248C107.006 282.218 108.189 281.791 109.151 281.031L140.518 256.269C141.933 256.793 143.475 256.874 144.937 256.5C146.4 256.126 147.714 255.316 148.705 254.176C149.696 253.037 150.317 251.623 150.485 250.122C150.653 248.621 150.361 247.104 149.646 245.773C148.932 244.443 147.83 243.361 146.486 242.673C145.143 241.984 143.622 241.721 142.125 241.919C140.629 242.117 139.228 242.766 138.109 243.779C136.99 244.793 136.206 246.124 135.861 247.595Z" fill="#A0616A"/>
<path d="M104.257 267.149L94.4255 279.9C94.1458 280.262 93.7912 280.56 93.3859 280.774C92.9806 280.987 92.5342 281.11 92.077 281.136C91.6197 281.161 91.1625 281.087 90.7364 280.919C90.3102 280.751 89.9252 280.494 89.6076 280.164L78.478 268.598C76.6309 267.156 75.4309 265.039 75.1411 262.712C74.8513 260.386 75.4954 258.039 76.9322 256.187C78.3689 254.335 80.481 253.128 82.8053 252.832C85.1296 252.536 87.4763 253.175 89.3309 254.608L103.29 262.418C103.689 262.642 104.036 262.95 104.306 263.319C104.577 263.689 104.764 264.113 104.856 264.562C104.947 265.011 104.941 265.475 104.838 265.921C104.735 266.367 104.536 266.786 104.257 267.149Z" fill="#CCCCCC"/>
<path d="M204.261 481H0.826972C0.607645 481 0.397301 480.913 0.242214 480.758C0.087127 480.602 0 480.392 0 480.173C0 479.953 0.087127 479.743 0.242214 479.587C0.397301 479.432 0.607645 479.345 0.826972 479.345H204.261C204.481 479.345 204.691 479.432 204.846 479.587C205.001 479.743 205.088 479.953 205.088 480.173C205.088 480.392 205.001 480.602 204.846 480.758C204.691 480.913 204.481 481 204.261 481Z" fill="#CCCCCC"/>
</g>
<defs>
<clipPath id="clip0_13_79">
<rect width="638" height="481" fill="white"/>
</clipPath>
</defs>
</svg>
